# xmcd
#
# Track frame offsets:
#   150
#   19323
#   37596
#   59244
#   77517
#   99240
#   126588
#   155061
#   175059
#   197832
#   214155
#   237303
#
# Disc length: 3383 seconds
#
# Revision: 0
# Processed by: cddbd v1.5.2PL0 Copyright (c) Steve Scherf et al.
# Submitted via: uFREEDB 1.6.2
#
DISCID=a30d350c
DTITLE=Unbekannter Künstler - Unbekanntes Album
DYEAR=2008
DGENRE=Pop
TTITLE0=Voices
TTITLE1=Voices
TTITLE2=Voices
TTITLE3=Voices
TTITLE4=Voices
TTITLE5=Voices
TTITLE6=Voices
TTITLE7=Voices
TTITLE8=Voices
TTITLE9=Voices
TTITLE10=Voices
TTITLE11=Voices
EXTD=
EXTT0=
EXTT1=
EXTT2=
EXTT3=
EXTT4=
EXTT5=
EXTT6=
EXTT7=
EXTT8=
EXTT9=
EXTT10=
EXTT11=
PLAYORDER=
